<?xml version="1.0" standalone="no"?>
<!DOCTYPE svg PUBLIC "-//W3C//DTD SVG 20010904//EN"
 "http://www.w3.org/TR/2001/REC-SVG-20010904/DTD/svg10.dtd">
<svg version="1.0" xmlns="http://www.w3.org/2000/svg"
 width="1080.000000pt" height="1080.000000pt" viewBox="0 0 1080.000000 1080.000000"
 preserveAspectRatio="xMidYMid meet">

<g transform="translate(0.000000,1080.000000) scale(0.100000,-0.100000)"
fill="#000000" stroke="none">
<path d="M5771 9800 c-175 -49 -344 -141 -483 -263 -104 -91 -148 -159 -177
-272 -10 -37 -18 -45 -86 -83 -152 -85 -375 -278 -475 -410 -75 -101 -131
-244 -146 -373 -5 -42 -11 -59 -21 -59 -13 0 -68 33 -83 50 -3 3 -27 23 -55
45 -71 57 -173 162 -245 252 -90 113 -99 123 -110 123 -29 0 8 -138 68 -255
111 -217 230 -379 378 -512 74 -67 82 -78 121 -170 23 -54 62 -145 88 -203 48
-110 89 -210 99 -247 4 -11 13 -27 21 -33 16 -13 21 -75 6 -84 -4 -3 -11 -39
-14 -79 -3 -43 -15 -96 -27 -125 -13 -31 -20 -61 -16 -75 3 -13 44 -58 91
-101 92 -84 203 -241 380 -536 48 -80 96 -155 107 -167 13 -13 38 -24 70 -28
46 -7 57 -3 151 43 146 71 254 90 335 57 43 -17 192 -171 192 -197 0 -20 -13
-24 -120 -37 -41 -5 -221 -30 -400 -56 -179 -25 -417 -57 -530 -71 -372 -45
-883 -125 -1250 -194 -85 -16 -177 -34 -205 -39 -101 -18 -711 -143 -837 -171
-72 -17 -158 -30 -192 -30 -33 -1 -90 -7 -126 -15 -36 -8 -75 -14 -88 -15 -25
0 -28 6 -89 164 -42 109 -69 139 -97 111 -26 -27 -30 -64 -18 -174 13 -112 8
-131 -30 -131 -26 0 -275 -56 -311 -69 -43 -16 -227 -52 -237 -46 -4 3 -29 38
-55 78 -81 124 -122 157 -193 157 -44 0 -76 -27 -87 -72 -8 -31 -35 -37 -55
-14 -6 8 -27 20 -45 26 -43 14 -80 -3 -125 -60 -31 -39 -34 -41 -75 -34 -60 8
-98 -15 -125 -78 -24 -55 -49 -70 -96 -56 -19 5 -42 4 -57 -1 -41 -16 -50 -45
-43 -133 8 -92 14 -86 -124 -113 -160 -31 -216 -43 -273 -60 l-57 -16 0 -241
0 -240 36 6 c19 4 104 26 187 50 258 73 296 81 315 70 9 -6 47 -71 84 -145 60
-119 103 -194 118 -209 3 -3 19 -23 35 -45 16 -22 62 -76 101 -120 38 -44 85
-107 103 -140 21 -38 72 -97 136 -160 56 -55 121 -129 146 -164 24 -35 59 -85
77 -110 112 -156 262 -401 262 -425 0 -12 -25 -55 -55 -96 -109 -148 -382
-516 -462 -623 -45 -60 -87 -125 -94 -145 -19 -59 2 -382 41 -617 5 -33 28
-172 51 -310 40 -242 116 -584 177 -790 16 -55 53 -179 82 -275 29 -96 54
-185 57 -197 l5 -23 3073 0 3072 0 17 86 c12 61 17 126 15 228 -2 131 -1 145
18 172 12 16 139 166 283 334 144 168 273 321 286 341 22 32 28 64 50 245 23
195 27 214 65 297 22 48 44 111 51 140 11 54 7 188 -12 412 -6 66 -8 165 -5
220 9 137 -9 366 -33 435 -11 30 -44 107 -74 170 -90 189 -188 425 -188 454 0
14 36 101 79 193 107 228 199 477 335 913 89 284 105 349 117 476 12 132 0
266 -30 337 -51 119 -199 290 -286 331 -21 10 -75 31 -119 47 -126 44 -123 46
109 79 77 12 226 27 330 35 105 7 253 18 330 24 329 25 441 32 640 42 116 5
302 14 415 19 113 5 352 15 533 22 l327 12 0 189 0 190 -67 -6 c-38 -4 -189
-11 -338 -17 -148 -5 -360 -15 -470 -20 -110 -6 -308 -15 -440 -20 -132 -6
-312 -15 -400 -20 -88 -6 -250 -15 -360 -20 -110 -5 -299 -16 -420 -25 -121
-8 -296 -19 -390 -25 -93 -7 -256 -19 -361 -29 -114 -10 -202 -13 -216 -8 -32
12 -168 178 -182 224 -7 21 -6 21 92 16 114 -7 247 10 310 37 51 23 165 129
197 185 17 29 28 73 39 156 15 113 38 208 72 300 16 40 16 50 4 79 -7 18 -25
46 -38 62 -31 36 -24 43 25 28 106 -35 191 -100 220 -168 8 -19 17 -32 20 -28
8 8 -17 66 -45 103 -32 43 -112 95 -189 123 -35 12 -63 25 -63 27 0 2 22 26
49 53 73 70 111 135 111 187 0 49 -19 74 -75 97 -36 15 -36 15 -20 45 18 35
20 128 4 203 -19 87 -58 157 -133 236 -85 89 -133 116 -272 152 -37 9 -43 14
-49 47 -10 57 -32 91 -75 119 -36 24 -46 26 -100 21 -72 -8 -70 -14 -39 149
19 102 22 111 58 144 21 19 45 46 54 60 24 37 31 118 17 186 -63 302 -426 554
-999 691 -89 21 -137 26 -296 29 -168 3 -198 2 -264 -16z m1519 -1296 c25 -10
47 -28 55 -45 34 -65 9 -65 -57 -1 -66 64 -65 73 2 46z m581 -824 c51 -28 -18
-135 -123 -190 l-37 -20 -7 45 c-10 68 2 109 42 144 37 33 87 41 125 21z
m-3501 -2241 c0 -6 -33 -54 -73 -107 -73 -98 -133 -192 -184 -292 -19 -36 -44
-65 -72 -84 -35 -23 -50 -44 -77 -103 -19 -41 -98 -204 -177 -361 -78 -158
-163 -345 -189 -417 -26 -71 -73 -202 -104 -290 -31 -88 -87 -239 -124 -335
-37 -97 -73 -201 -80 -233 -13 -54 -15 -58 -51 -67 -21 -6 -59 -26 -84 -45
-25 -19 -48 -35 -51 -35 -4 0 -37 22 -74 50 -95 71 -147 91 -395 153 -294 74
-315 82 -401 164 -63 60 -101 107 -220 268 -118 162 -287 460 -319 565 -19 63
-21 243 -6 433 6 63 7 124 4 135 -7 28 8 34 172 71 77 18 159 37 183 43 25 6
46 7 51 2 4 -5 20 -41 35 -81 46 -122 85 -163 123 -132 13 11 15 33 11 141 -4
98 -2 131 8 139 15 12 50 22 169 45 43 8 91 24 105 34 31 22 93 38 320 84 337
67 436 85 530 100 52 9 176 32 275 52 498 100 695 129 695 103z"/>
</g>
</svg>
